<svg xmlns="http://www.w3.org/2000/svg" width="800" height="500" viewBox="0 0 800 500" role="img" aria-labelledby="title"><title id="title">TECLADO MECÁNICO KEYS</title><defs>
<linearGradient id="bg" x2="1" y2="1"><stop stop-color="#15192b"/><stop offset="1" stop-color="#070b13"/></linearGradient>
<linearGradient id="shell" x2="1" y2=".8"><stop stop-color="#657082"/><stop offset=".45" stop-color="#303b4e"/><stop offset="1" stop-color="#141b2b"/></linearGradient>
<linearGradient id="pocket" x2=".2" y2="1"><stop stop-color="#404e62"/><stop offset="1" stop-color="#1c2638"/></linearGradient>
<linearGradient id="metal"><stop stop-color="#8293a9"/><stop offset=".35" stop-color="#eef5fb"/><stop offset=".6" stop-color="#65788b"/><stop offset="1" stop-color="#26374b"/></linearGradient>
<linearGradient id="accent" x2="1" y2="1"><stop stop-color="#daff7f"/><stop offset="1" stop-color="#80c83b"/></linearGradient>
<radialGradient id="glow"><stop stop-color="#7881ff" stop-opacity=".35"/><stop offset="1" stop-color="#7881ff" stop-opacity="0"/></radialGradient>
<pattern id="grid" width="40" height="40" patternUnits="userSpaceOnUse"><path d="M40 0H0V40" fill="none" stroke="#fff" stroke-opacity=".045"/></pattern>
</defs><rect width="800" height="500" fill="url(#bg)"/><rect width="800" height="500" fill="url(#grid)"/><ellipse cx="515" cy="200" rx="370" ry="300" fill="url(#glow)"/><circle cx="425" cy="214" r="165" fill="none" stroke="#baf16a" stroke-opacity=".14"/><circle cx="425" cy="214" r="180" fill="none" stroke="#fff" stroke-opacity=".06"/><path d="M44 47H62M53 38V56" stroke="#baf16a" stroke-width="2"/><text x="77" y="52" fill="#c3cbd9" font-family="Arial" font-size="11" letter-spacing="3">TIENDA URBANA</text><text x="748" y="64" text-anchor="end" fill="#baf16a" font-family="Arial" font-size="30">09</text><ellipse cx="419" cy="377" rx="139" ry="17" fill="#03060d" opacity=".7"/><g transform="translate(418 231) rotate(-10)"><rect x="-192" y="-87" width="384" height="191" rx="17" fill="url(#metal)"/><rect x="-184" y="-81" width="368" height="174" rx="12" fill="#121c2d"/><rect x="-173" y="-69" width="24" height="25" rx="4" fill="url(#accent)" stroke="#748295" stroke-opacity=".3"/><path d="M-166 -61h7" stroke="#c3cbd9" stroke-width="1.5"/><rect x="-144" y="-69" width="24" height="25" rx="4" fill="url(#shell)" stroke="#748295" stroke-opacity=".3"/><path d="M-137 -61h7" stroke="#c3cbd9" stroke-width="1.5"/><rect x="-115" y="-69" width="24" height="25" rx="4" fill="url(#shell)" stroke="#748295" stroke-opacity=".3"/><path d="M-108 -61h7" stroke="#c3cbd9" stroke-width="1.5"/><rect x="-86" y="-69" width="24" height="25" rx="4" fill="url(#shell)" stroke="#748295" stroke-opacity=".3"/><path d="M-79 -61h7" stroke="#c3cbd9" stroke-width="1.5"/><rect x="-57" y="-69" width="24" height="25" rx="4" fill="url(#shell)" stroke="#748295" stroke-opacity=".3"/><path d="M-50 -61h7" stroke="#c3cbd9" stroke-width="1.5"/><rect x="-28" y="-69" width="24" height="25" rx="4" fill="url(#shell)" stroke="#748295" stroke-opacity=".3"/><path d="M-21 -61h7" stroke="#c3cbd9" stroke-width="1.5"/><rect x="1" y="-69" width="24" height="25" rx="4" fill="url(#shell)" stroke="#748295" stroke-opacity=".3"/><path d="M8 -61h7" stroke="#c3cbd9" stroke-width="1.5"/><rect x="30" y="-69" width="24" height="25" rx="4" fill="url(#shell)" stroke="#748295" stroke-opacity=".3"/><path d="M37 -61h7" stroke="#c3cbd9" stroke-width="1.5"/><rect x="59" y="-69" width="24" height="25" rx="4" fill="url(#shell)" stroke="#748295" stroke-opacity=".3"/><path d="M66 -61h7" stroke="#c3cbd9" stroke-width="1.5"/><rect x="88" y="-69" width="24" height="25" rx="4" fill="url(#shell)" stroke="#748295" stroke-opacity=".3"/><path d="M95 -61h7" stroke="#c3cbd9" stroke-width="1.5"/><rect x="117" y="-69" width="24" height="25" rx="4" fill="url(#accent)" stroke="#748295" stroke-opacity=".3"/><path d="M124 -61h7" stroke="#c3cbd9" stroke-width="1.5"/><rect x="146" y="-69" width="24" height="25" rx="4" fill="url(#accent)" stroke="#748295" stroke-opacity=".3"/><path d="M153 -61h7" stroke="#c3cbd9" stroke-width="1.5"/><rect x="-173" y="-38" width="24" height="25" rx="4" fill="url(#accent)" stroke="#748295" stroke-opacity=".3"/><path d="M-166 -30h7" stroke="#c3cbd9" stroke-width="1.5"/><rect x="-144" y="-38" width="24" height="25" rx="4" fill="url(#shell)" stroke="#748295" stroke-opacity=".3"/><path d="M-137 -30h7" stroke="#c3cbd9" stroke-width="1.5"/><rect x="-115" y="-38" width="24" height="25" rx="4" fill="url(#shell)" stroke="#748295" stroke-opacity=".3"/><path d="M-108 -30h7" stroke="#c3cbd9" stroke-width="1.5"/><rect x="-86" y="-38" width="24" height="25" rx="4" fill="url(#shell)" stroke="#748295" stroke-opacity=".3"/><path d="M-79 -30h7" stroke="#c3cbd9" stroke-width="1.5"/><rect x="-57" y="-38" width="24" height="25" rx="4" fill="url(#shell)" stroke="#748295" stroke-opacity=".3"/><path d="M-50 -30h7" stroke="#c3cbd9" stroke-width="1.5"/><rect x="-28" y="-38" width="24" height="25" rx="4" fill="url(#shell)" stroke="#748295" stroke-opacity=".3"/><path d="M-21 -30h7" stroke="#c3cbd9" stroke-width="1.5"/><rect x="1" y="-38" width="24" height="25" rx="4" fill="url(#shell)" stroke="#748295" stroke-opacity=".3"/><path d="M8 -30h7" stroke="#c3cbd9" stroke-width="1.5"/><rect x="30" y="-38" width="24" height="25" rx="4" fill="url(#shell)" stroke="#748295" stroke-opacity=".3"/><path d="M37 -30h7" stroke="#c3cbd9" stroke-width="1.5"/><rect x="59" y="-38" width="24" height="25" rx="4" fill="url(#shell)" stroke="#748295" stroke-opacity=".3"/><path d="M66 -30h7" stroke="#c3cbd9" stroke-width="1.5"/><rect x="88" y="-38" width="24" height="25" rx="4" fill="url(#shell)" stroke="#748295" stroke-opacity=".3"/><path d="M95 -30h7" stroke="#c3cbd9" stroke-width="1.5"/><rect x="117" y="-38" width="24" height="25" rx="4" fill="url(#shell)" stroke="#748295" stroke-opacity=".3"/><path d="M124 -30h7" stroke="#c3cbd9" stroke-width="1.5"/><rect x="146" y="-38" width="24" height="25" rx="4" fill="url(#shell)" stroke="#748295" stroke-opacity=".3"/><path d="M153 -30h7" stroke="#c3cbd9" stroke-width="1.5"/><rect x="-173" y="-7" width="24" height="25" rx="4" fill="url(#accent)" stroke="#748295" stroke-opacity=".3"/><path d="M-166 1h7" stroke="#c3cbd9" stroke-width="1.5"/><rect x="-144" y="-7" width="24" height="25" rx="4" fill="url(#shell)" stroke="#748295" stroke-opacity=".3"/><path d="M-137 1h7" stroke="#c3cbd9" stroke-width="1.5"/><rect x="-115" y="-7" width="24" height="25" rx="4" fill="url(#shell)" stroke="#748295" stroke-opacity=".3"/><path d="M-108 1h7" stroke="#c3cbd9" stroke-width="1.5"/><rect x="-86" y="-7" width="24" height="25" rx="4" fill="url(#shell)" stroke="#748295" stroke-opacity=".3"/><path d="M-79 1h7" stroke="#c3cbd9" stroke-width="1.5"/><rect x="-57" y="-7" width="24" height="25" rx="4" fill="url(#shell)" stroke="#748295" stroke-opacity=".3"/><path d="M-50 1h7" stroke="#c3cbd9" stroke-width="1.5"/><rect x="-28" y="-7" width="24" height="25" rx="4" fill="url(#shell)" stroke="#748295" stroke-opacity=".3"/><path d="M-21 1h7" stroke="#c3cbd9" stroke-width="1.5"/><rect x="1" y="-7" width="24" height="25" rx="4" fill="url(#shell)" stroke="#748295" stroke-opacity=".3"/><path d="M8 1h7" stroke="#c3cbd9" stroke-width="1.5"/><rect x="30" y="-7" width="24" height="25" rx="4" fill="url(#shell)" stroke="#748295" stroke-opacity=".3"/><path d="M37 1h7" stroke="#c3cbd9" stroke-width="1.5"/><rect x="59" y="-7" width="24" height="25" rx="4" fill="url(#shell)" stroke="#748295" stroke-opacity=".3"/><path d="M66 1h7" stroke="#c3cbd9" stroke-width="1.5"/><rect x="88" y="-7" width="24" height="25" rx="4" fill="url(#shell)" stroke="#748295" stroke-opacity=".3"/><path d="M95 1h7" stroke="#c3cbd9" stroke-width="1.5"/><rect x="117" y="-7" width="24" height="25" rx="4" fill="url(#shell)" stroke="#748295" stroke-opacity=".3"/><path d="M124 1h7" stroke="#c3cbd9" stroke-width="1.5"/><rect x="146" y="-7" width="24" height="25" rx="4" fill="url(#shell)" stroke="#748295" stroke-opacity=".3"/><path d="M153 1h7" stroke="#c3cbd9" stroke-width="1.5"/><rect x="-173" y="24" width="24" height="25" rx="4" fill="url(#accent)" stroke="#748295" stroke-opacity=".3"/><path d="M-166 32h7" stroke="#c3cbd9" stroke-width="1.5"/><rect x="-144" y="24" width="24" height="25" rx="4" fill="url(#shell)" stroke="#748295" stroke-opacity=".3"/><path d="M-137 32h7" stroke="#c3cbd9" stroke-width="1.5"/><rect x="-115" y="24" width="24" height="25" rx="4" fill="url(#shell)" stroke="#748295" stroke-opacity=".3"/><path d="M-108 32h7" stroke="#c3cbd9" stroke-width="1.5"/><rect x="-86" y="24" width="24" height="25" rx="4" fill="url(#shell)" stroke="#748295" stroke-opacity=".3"/><path d="M-79 32h7" stroke="#c3cbd9" stroke-width="1.5"/><rect x="-57" y="24" width="24" height="25" rx="4" fill="url(#shell)" stroke="#748295" stroke-opacity=".3"/><path d="M-50 32h7" stroke="#c3cbd9" stroke-width="1.5"/><rect x="-28" y="24" width="24" height="25" rx="4" fill="url(#shell)" stroke="#748295" stroke-opacity=".3"/><path d="M-21 32h7" stroke="#c3cbd9" stroke-width="1.5"/><rect x="1" y="24" width="24" height="25" rx="4" fill="url(#shell)" stroke="#748295" stroke-opacity=".3"/><path d="M8 32h7" stroke="#c3cbd9" stroke-width="1.5"/><rect x="30" y="24" width="24" height="25" rx="4" fill="url(#shell)" stroke="#748295" stroke-opacity=".3"/><path d="M37 32h7" stroke="#c3cbd9" stroke-width="1.5"/><rect x="59" y="24" width="24" height="25" rx="4" fill="url(#shell)" stroke="#748295" stroke-opacity=".3"/><path d="M66 32h7" stroke="#c3cbd9" stroke-width="1.5"/><rect x="88" y="24" width="24" height="25" rx="4" fill="url(#shell)" stroke="#748295" stroke-opacity=".3"/><path d="M95 32h7" stroke="#c3cbd9" stroke-width="1.5"/><rect x="117" y="24" width="24" height="25" rx="4" fill="url(#shell)" stroke="#748295" stroke-opacity=".3"/><path d="M124 32h7" stroke="#c3cbd9" stroke-width="1.5"/><rect x="146" y="24" width="24" height="25" rx="4" fill="url(#shell)" stroke="#748295" stroke-opacity=".3"/><path d="M153 32h7" stroke="#c3cbd9" stroke-width="1.5"/><rect x="-173" y="56" width="47" height="25" rx="4" fill="url(#shell)"/><rect x="-120" y="56" width="47" height="25" rx="4" fill="url(#shell)"/><rect x="-67" y="56" width="153" height="25" rx="4" fill="url(#accent)"/><rect x="92" y="56" width="47" height="25" rx="4" fill="url(#shell)"/><rect x="145" y="56" width="24" height="25" rx="4" fill="url(#shell)"/></g><path d="M48 408H752" stroke="#fff" stroke-opacity=".15"/><text x="48" y="451" fill="#f6f7fb" font-family="Arial" font-size="29" font-weight="700" letter-spacing="1">TECLADO MECÁNICO</text><text x="49" y="477" fill="#baf16a" font-family="Arial" font-size="12" letter-spacing="4">KEYS</text><circle cx="725" cy="450" r="22" fill="#baf16a"/><path d="M717 458L733 442M719 442H733V456" fill="none" stroke="#192420" stroke-width="2"/></svg>